<?xml version="1.0" encoding="UTF-8"?>
<svg id="_圖層_1" data-name="圖層 1" xmlns="http://www.w3.org/2000/svg" viewBox="0 0 120 120">
  <defs>
    <style>
      .cls-1 {
        fill: #ff891b;
        stroke-width: 0px;
      }
    </style>
  </defs>
  <circle class="cls-1" cx="60.03" cy="11.95" r="1.95"/>
  <path class="cls-1" d="M97.05,48.88c.41-15.63-6.47-27.29-20.19-34.84-2.31-1.27-4.8-2.14-7.35-2.81-1.67-.44-3.01.75-2.63,2.3.24.99,1.03,1.32,1.92,1.56,17.43,4.64,28.01,22.95,23.37,40.4-5.3,19.92-26.92,30.28-45.73,21.9-19.57-8.71-25.83-33.73-12.66-50.62,4.57-5.86,10.45-9.76,17.62-11.72,1.45-.4,2.1-1.34,1.78-2.54-.3-1.16-1.38-1.6-2.85-1.22-1.95.51-3.84,1.19-5.67,2.03-23.89,10.93-29.22,42.39-10.26,60.58.55.53.69.87.27,1.61-3.74,6.5-7.42,13.03-11.13,19.55-.48.84-.63,1.65,0,2.45.59.75,1.36.86,2.28.66,4.06-.87,8.14-1.68,12.2-2.56.66-.14.9.04,1.11.64,1.39,3.98,2.82,7.95,4.21,11.93.33.96.8,1.73,1.91,1.81,1.07.08,1.63-.61,2.1-1.45,2.46-4.35,4.94-8.7,7.41-13.04,1.73-3.04,3.46-6.08,5.27-9.27.27.47.45.77.62,1.08,4.04,7.11,8.09,14.22,12.13,21.34.47.82,1.06,1.43,2.07,1.33,1-.09,1.5-.75,1.82-1.66,1.39-3.98,2.84-7.94,4.22-11.93.25-.72.47-.94,1.28-.76,3.93.87,7.89,1.63,11.82,2.48.99.21,1.88.25,2.55-.64.71-.94.33-1.81-.18-2.71-3.62-6.35-7.19-12.72-10.84-19.04-.51-.88-.41-1.31.3-2,6.99-6.81,10.97-15.13,11.23-24.86ZM45.88,103.2c-.38-.23-.38-.63-.49-.94-1.11-3.08-2.2-6.17-3.3-9.26-.55-1.54-1.24-1.93-2.82-1.6-3.12.65-6.23,1.3-9.35,1.94-.28.06-.57.08-.99.14.82-1.45,1.59-2.79,2.35-4.14,2.18-3.84,4.35-7.68,6.53-11.52.23-.4.33-.76.96-.32,5.32,3.74,11.23,5.9,17.7,6.55.05,0,.1.05.23.11-3.61,6.35-7.22,12.69-10.83,19.04ZM91.16,93.53c-3.62-.74-7.02-1.44-10.42-2.14-1.5-.31-2.22.09-2.75,1.57-1.11,3.12-2.21,6.24-3.33,9.35-.1.29-.11.65-.47.9-3.61-6.35-7.21-12.68-10.87-19.11,2.83-.3,5.52-.82,8.13-1.67,3.51-1.14,6.78-2.77,9.82-4.88.3-.21.53-.54.87.06,2.95,5.26,5.94,10.5,9.02,15.92Z"/>
  <path class="cls-1" d="M30.74,47.13c0,16.14,13.17,29.29,29.31,29.28,16.14,0,29.29-13.17,29.28-29.31,0-16.15-13.17-29.29-29.31-29.28-16.14,0-29.29,13.17-29.28,29.31ZM85.42,47.2c-.04,13.98-11.47,25.34-25.45,25.31-13.98-.03-25.35-11.45-25.33-25.42.02-13.98,11.42-25.36,25.4-25.35,14.02,0,25.42,11.45,25.38,25.47Z"/>
  <path class="cls-1" d="M41.49,41.58c-.34.95.06,1.68.75,2.34,1.99,1.93,3.87,3.96,5.94,5.79,1.12,1,1.33,1.96,1.04,3.37-.6,2.86-.99,5.76-1.47,8.65-.09,1.64,1.48,2.58,3.05,1.78,2.83-1.44,5.66-2.9,8.46-4.4.55-.29.97-.31,1.52-.02,2.84,1.51,5.7,2.97,8.54,4.46.76.4,1.51.41,2.2-.11.65-.49.89-1.18.76-1.99-.54-3.2-1.06-6.41-1.63-9.61-.1-.55.02-.9.41-1.28,2.29-2.22,4.54-4.48,6.82-6.71.66-.65,1-1.37.69-2.28-.3-.86-.99-1.21-1.87-1.34-3.09-.44-6.17-.93-9.26-1.36-.68-.1-1.06-.38-1.36-1.01-1.34-2.77-2.75-5.52-4.11-8.28-.42-.85-.96-1.47-1.99-1.45-.98.02-1.5.63-1.9,1.44-1.38,2.79-2.79,5.57-4.15,8.37-.27.55-.6.83-1.22.91-3.09.44-6.17.94-9.26,1.37-.91.13-1.65.43-1.97,1.33ZM54.75,42.5c1.02-.14,1.62-.66,2.05-1.55.92-1.9,1.88-3.77,2.83-5.65.11-.22.23-.44.42-.8,1.09,2.19,2.15,4.22,3.13,6.29.49,1.04,1.19,1.61,2.35,1.76,2.31.29,4.61.68,6.83,1.01-1.58,1.64-3.11,3.32-4.73,4.91-.86.85-1.26,1.69-1,2.94.46,2.24.76,4.52,1.15,6.94-2.18-1.13-4.24-2.14-6.25-3.25-1.05-.58-1.96-.57-3.01,0-2,1.11-4.06,2.13-6.24,3.25.4-2.49.74-4.83,1.18-7.15.2-1.06-.1-1.81-.82-2.53-1.66-1.68-3.29-3.4-4.92-5.1,2.28-.35,4.65-.75,7.02-1.07Z"/>
</svg>