<?xml version="1.0" encoding="utf-8"?>
<!-- Generator: Adobe Illustrator 25.0.1, SVG Export Plug-In . SVG Version: 6.00 Build 0)  -->
<svg version="1.1" id="圖層_1" xmlns="http://www.w3.org/2000/svg" xmlns:xlink="http://www.w3.org/1999/xlink" x="0px" y="0px"
	 viewBox="0 0 100 100" style="enable-background:new 0 0 100 100;" xml:space="preserve">
<style type="text/css">
	.st0{fill:#83A499;}
	.st1{fill:#61856D;}
	.st2{fill:#E7E7D9;}
	.st3{fill:#AAA785;}
	.st4{fill:#EC8089;}
	.st5{fill:#CC176C;}
</style>
<g id="flat_1_">
	<path class="st0" d="M18.2,20.6h63.5c1.3,0,2.4,1.1,2.4,2.4v42.3c0,1.3-1.1,2.4-2.4,2.4H18.2c-1.3,0-2.4-1.1-2.4-2.4V22.9
		C15.9,21.6,16.9,20.6,18.2,20.6z"/>
	<path class="st1" d="M39.4,67.6h21.2v5.9H39.4V67.6z"/>
	<path class="st0" d="M66.5,79.4H33.5v-3.5l5.9-2.4h21.2l5.9,1.9V79.4z"/>
	<path class="st2" d="M20.6,25.3h58.8v37.6H20.6V25.3z"/>
	<path class="st3" d="M24.1,28.8h2.4v2.4h-2.4V28.8z"/>
	<path class="st3" d="M28.8,28.8h2.4v2.4h-2.4V28.8z"/>
	<path class="st3" d="M73.5,57.1h2.4v2.4h-2.4V57.1z"/>
	<g>
		<path class="st4" d="M30,47.6c-3.2,0-5.9-3.2-5.9-7.1s2.6-7.1,5.9-7.1v2.4c-1.9,0-3.5,2.1-3.5,4.7c0,2.6,1.6,4.7,3.5,4.7V47.6z"/>
		<path class="st4" d="M44.1,47.6v-2.4c1.9,0,3.5-2.1,3.5-4.7c0-2.6-1.6-4.7-3.5-4.7v-2.4c3.2,0,5.9,3.2,5.9,7.1
			S47.4,47.6,44.1,47.6z"/>
		<path class="st4" d="M28.8,39.4h3.5v2.4h-3.5V39.4z"/>
		<path class="st4" d="M41.8,46.5h-5.9c-0.6,0-1.2-0.5-1.2-1.2v-2.4c0-0.4,0.3-0.9,0.7-1.1l4.1-2v-2.8h-2.4v2.4h-2.4v-3.5
			c0-0.6,0.5-1.2,1.2-1.2h4.7c0.6,0,1.2,0.5,1.2,1.2v4.7c0,0.4-0.3,0.9-0.7,1.1l-4.1,2v0.4h4.7V46.5z"/>
		<path class="st4" d="M74.7,54.7h-5.9c-0.6,0-1.2-0.5-1.2-1.2v-2.4c0-0.4,0.2-0.9,0.7-1.1l4.1-2v-2.8H70v2.4h-2.4v-3.5
			c0-0.6,0.5-1.2,1.2-1.2h4.7c0.6,0,1.2,0.5,1.2,1.2v4.7c0,0.4-0.3,0.9-0.7,1.1l-4.1,2v0.4h4.7V54.7z"/>
	</g>
	<path class="st5" d="M44.1,58.2c-0.1,0-0.1,0-0.2,0c-0.4-0.1-0.8-0.3-0.9-0.7L41,52.4h-2.7V50h3.5c0.5,0,0.9,0.3,1.1,0.7l1.6,4
		l12.9-16.1c0.2-0.3,0.6-0.4,0.9-0.4h16.5v2.4H58.8L45,57.8C44.8,58.1,44.5,58.2,44.1,58.2L44.1,58.2z"/>
	<path class="st4" d="M64.1,54.7h-4.7c-0.6,0-1.2-0.5-1.2-1.2v-9.4c0-0.6,0.5-1.2,1.2-1.2h5.9v2.4h-4.7v2.4h3.5
		c0.6,0,1.2,0.5,1.2,1.2v4.7C65.3,54.2,64.8,54.7,64.1,54.7z M60.6,52.4h2.4V50h-2.4V52.4z"/>
</g>
</svg>
